<svg viewBox='0 0 100 100'  xmlns="http://www.w3.org/2000/svg">
<circle cx='50' cy='50' r='50' fill='#22d49f'/>
    <g fill="#181d23" transform='translate(28, 17) scale(0.9)'>
      <path d="M 0.001 49.5 L 0.001 16 A 22.089 22.089 0 0 1 0.462 11.335 Q 1.442 6.803 4.501 4.05 A 12.201 12.201 0 0 1 4.607 3.956 Q 8.092 0.892 14.215 0.201 A 33.826 33.826 0 0 1 18.001 0 L 31.001 0 Q 40.001 0 44.501 4.05 A 12.931 12.931 0 0 1 48.286 10.316 Q 48.867 12.377 48.976 14.842 A 26.27 26.27 0 0 1 49.001 16 L 49.001 49.5 A 22.089 22.089 0 0 1 48.539 54.166 Q 47.559 58.698 44.501 61.45 A 14.13 14.13 0 0 1 39.55 64.272 Q 37.417 65.001 34.803 65.298 A 33.8 33.8 0 0 1 31.001 65.5 L 18.001 65.5 Q 9.001 65.5 4.501 61.45 A 12.931 12.931 0 0 1 0.715 55.185 Q 0.135 53.124 0.026 50.659 A 26.27 26.27 0 0 1 0.001 49.5 Z M 32.601 13.3 L 16.401 13.3 A 2.015 2.015 0 0 0 15.847 13.37 Q 15.225 13.548 15.06 14.182 A 2.063 2.063 0 0 0 15.001 14.7 L 15.001 50.8 A 2.015 2.015 0 0 0 15.07 51.355 Q 15.248 51.976 15.882 52.141 A 2.063 2.063 0 0 0 16.401 52.2 L 32.601 52.2 A 2.015 2.015 0 0 0 33.155 52.131 Q 33.776 51.953 33.941 51.319 A 2.063 2.063 0 0 0 34.001 50.8 L 34.001 14.7 A 2.015 2.015 0 0 0 33.931 14.146 Q 33.753 13.525 33.119 13.36 A 2.063 2.063 0 0 0 32.601 13.3 Z M 38.701 77 L 24.701 77 L 21.501 60.5 L 34.401 60.5 L 38.701 77 Z" vector-effect="non-scaling-stroke"/>
    </g>
</svg>